HIERARCHY
ROOT Hips
{
	OFFSET 0.00000 0.00000 0.00000
	CHANNELS 6 Xposition Yposition Zposition Zrotation Yrotation Xrotation 
	JOINT LHipJoint
	{
		OFFSET 0 0 0
		CHANNELS 3 Zrotation Yrotation Xrotation
		JOINT LeftHip
		{
			OFFSET 1.64577 -1.42384 0.94276
			CHANNELS 3 Zrotation Yrotation Xrotation
			JOINT LeftKnee
			{
				OFFSET 2.11538 -5.81197 0.00000
				CHANNELS 3 Zrotation Yrotation Xrotation
				JOINT LeftAnkle
				{
					OFFSET 2.36541 -6.49893 0.00000
					CHANNELS 3 Zrotation Yrotation Xrotation
					JOINT LeftToe
					{
						OFFSET 0.17759 -0.48793 1.73865
						CHANNELS 3 Zrotation Yrotation Xrotation
						End Site
						{
							OFFSET 0.00000 -0.00000 0.91205
						}
					}
				}
			}
		}
	}
	JOINT RHipJoint
	{
		OFFSET 0 0 0
		CHANNELS 3 Zrotation Yrotation Xrotation
		JOINT RightHip
		{
			OFFSET -1.43750 -1.42384 0.94276
			CHANNELS 3 Zrotation Yrotation Xrotation
			JOINT RightKnee
			{
				OFFSET -2.10480 -5.78291 0.00000
				CHANNELS 3 Zrotation Yrotation Xrotation
				JOINT RightAnkle
				{
					OFFSET -2.34880 -6.45329 0.00000
					CHANNELS 3 Zrotation Yrotation Xrotation
					JOINT RightToe
					{
						OFFSET -0.22842 -0.62757 1.80469
						CHANNELS 3 Zrotation Yrotation Xrotation
						End Site
						{
							OFFSET -0.00000 -0.00000 0.95886
						}
					}
				}
			}
		}
	}
	JOINT lowerback
	{
		OFFSET 0 0 0
		CHANNELS 3 Zrotation Yrotation Xrotation
		JOINT Chest
		{
			OFFSET 0.06217 1.93758 -0.49272
			CHANNELS 3 Zrotation Yrotation Xrotation
			JOINT Chest2
			{
				OFFSET -0.03114 2.03621 -0.05830
				CHANNELS 3 Zrotation Yrotation Xrotation
				JOINT lowerneck
				{
					OFFSET 0 0 0
					CHANNELS 3 Zrotation Yrotation Xrotation
					JOINT Neck
					{
						OFFSET 0.04421 1.41010 0.26562
						CHANNELS 3 Zrotation Yrotation Xrotation
						JOINT Head
						{
							OFFSET -0.13407 1.43847 0.06181
							CHANNELS 3 Zrotation Yrotation Xrotation
							End Site
							{
								OFFSET -0.04980 1.45844 -0.00689
							}
						}
					}
				}
				JOINT LeftCollar
				{
					OFFSET 0 0 0
					CHANNELS 3 Zrotation Yrotation Xrotation
					JOINT LeftShoulder
					{
						OFFSET 2.18382 1.47753 -0.35694
CHANNELS 3 Zrotation Xrotation Yrotation
						JOINT LeftElbow
						{
OFFSET 0 -5.054600 0.000000
CHANNELS 3 Zrotation Xrotation Yrotation
							JOINT LeftWrist
							{
OFFSET 0 -3.390130 0.000000
CHANNELS 3 Zrotation Xrotation Yrotation
								JOINT lhand
								{
									OFFSET 0 0 0
CHANNELS 3 Zrotation Xrotation Yrotation
									JOINT LFingers
									{
OFFSET 0 -0.572420 -0.000000
CHANNELS 3 Zrotation Xrotation Yrotation
										End Site
										{
OFFSET 0 -0.461500 -0.000000
										}
									}
								}
								JOINT LThumb
								{
OFFSET 0 0.000000 0.000000
CHANNELS 3 Zrotation Xrotation Yrotation
									End Site
									{
OFFSET 0 -0.468550 0.468550
									}
								}
							}
						}
					}
				}
				JOINT RightCollar
				{
					OFFSET 0 0 0
					CHANNELS 3 Zrotation Yrotation Xrotation
					JOINT RightShoulder
					{
						OFFSET -2.06033 1.72839 -0.47437
CHANNELS 3 Zrotation Xrotation Yrotation
						JOINT RightElbow
						{
OFFSET 0 -5.070100 0.000000
CHANNELS 3 Zrotation Xrotation Yrotation
							JOINT RightWrist
							{
OFFSET 0 -3.149570 -0.000000
CHANNELS 3 Zrotation Xrotation Yrotation
								JOINT rhand
								{
									OFFSET 0 0 0
CHANNELS 3 Zrotation Xrotation Yrotation
									JOINT RFingers
									{
OFFSET 0 -0.718190 -0.000000
CHANNELS 3 Zrotation Xrotation Yrotation
										End Site
										{
OFFSET 0 -0.579020 -0.000000
										}
									}
								}
								JOINT RThumb
								{
OFFSET 0 0.000000 0.000000
CHANNELS 3 Zrotation Xrotation Yrotation
									End Site
									{
OFFSET 0 -0.587860 0.587860
									}
								}
							}
						}
					}
				}
			}
		}
	}
}
MOTION
Frames: 12
Frame Time: 0.008333333333333333
6.870909 15.060484 0.074397 -194.834437 76.290473 -187.291287 0.000000 0.000000 0.000000 -22.766767 -19.002713 -24.461803 11.740203 18.277227 65.161336 1.571120 8.948640 -28.392731 1.407289 -7.496112 -21.197233 0.000000 0.000000 0.000000 20.886076 13.989064 -27.323020 -5.340243 -13.755265 42.269144 -0.931444 -12.637170 -26.795019 -2.380199 9.616534 -27.743840 -0.706152 -1.978465 22.993517 0.551494 -1.934478 8.149141 1.467750 -0.656146 -3.839297 8.443133 4.322524 -13.373103 -11.269802 5.236511 2.572953 -4.467233 2.240642 3.471906 0.000000 0.000000 0.000000 18.017961 11.826135 -27.634378 118.875341 -56.584355 84.717716 33.961290 -13.384833 -10.417252 0.000000 0.000000 0.000000 -7.125000 0.000000 0.000000 6.251650 42.393808 0.402623 0.000000 0.000000 0.000000 -26.776511 26.401398 44.793430 -83.228729 -59.825315 -54.139346 -14.623504 -26.082707 -8.135027 0.000000 0.000000 0.000000 7.125000 0.000000 0.000000 8.852500 21.612877 5.027405
6.972359 15.003457 0.088267 -188.839269 76.823847 -180.989898 0.000000 0.000000 0.000000 -20.509426 -19.438247 -26.139007 12.044592 18.409199 66.129746 1.556958 8.543981 -28.016957 1.580443 -7.930705 -22.504044 0.000000 0.000000 0.000000 22.685180 14.103397 -27.963756 -5.560194 -13.987564 43.188716 -1.047601 -12.215281 -27.275320 -2.349572 9.558974 -27.560240 0.638477 -2.072301 23.186630 1.086996 -1.741910 8.018042 1.236440 -0.555569 -4.114827 8.708933 4.321240 -13.077929 -11.665309 5.219168 2.228986 -4.640758 2.234333 3.340581 0.000000 0.000000 0.000000 16.612945 11.489477 -27.654910 116.266708 -57.222009 82.535052 34.251521 -14.217793 -11.012496 0.000000 0.000000 0.000000 -7.125000 0.000000 0.000000 6.525981 43.137178 0.290524 0.000000 0.000000 0.000000 -25.321846 25.517708 44.739707 -82.482039 -59.783449 -53.494094 -15.458732 -25.908685 -8.321197 0.000000 0.000000 0.000000 7.125000 0.000000 0.000000 8.243580 21.385848 4.717589
7.094732 14.939629 0.091578 -189.028781 77.010612 -181.125164 0.000000 0.000000 0.000000 -20.239177 -20.037078 -26.827945 12.280321 18.505998 66.873776 1.613530 7.909501 -27.985395 1.680272 -8.164108 -23.214540 0.000000 0.000000 0.000000 22.858701 13.455461 -28.372793 -5.835656 -14.265140 44.314660 -1.210201 -11.311468 -27.676466 -2.437354 9.722490 -28.083266 0.622062 -2.076035 23.437716 1.263193 -1.712251 8.172470 1.431800 -0.534081 -4.065511 8.948888 4.380066 -13.435748 -12.196649 5.268413 2.016577 -4.840063 2.237221 3.365168 0.000000 0.000000 0.000000 15.026042 10.751928 -27.579316 113.814247 -57.733481 80.465421 35.747402 -14.415055 -13.165894 0.000000 0.000000 0.000000 -7.125000 0.000000 0.000000 7.969235 45.915896 -0.218060 0.000000 0.000000 0.000000 -23.975744 23.672180 44.357512 -80.368798 -59.640082 -51.669490 -16.107020 -25.757075 -8.679862 0.000000 0.000000 0.000000 7.125000 0.000000 0.000000 7.767967 20.985547 4.510182
7.218083 14.867696 0.092094 -188.337977 77.292768 -180.392222 0.000000 0.000000 0.000000 -19.702644 -20.629482 -27.632442 12.543390 18.609877 67.699923 1.685379 7.242231 -28.053835 1.762122 -8.350934 -23.785722 0.000000 0.000000 0.000000 23.225937 12.940784 -28.770465 -6.131287 -14.551193 45.500503 -1.361110 -10.424750 -28.032992 -2.557461 9.939618 -28.783148 0.708817 -2.083169 23.628718 1.502783 -1.668944 8.260013 1.633029 -0.509054 -4.060631 9.328530 4.501539 -13.437808 -12.861527 5.397911 1.647901 -5.102993 2.290134 3.305264 0.000000 0.000000 0.000000 13.372253 10.189557 -27.339489 111.546001 -58.159763 78.542835 36.438049 -15.598133 -14.483037 0.000000 0.000000 0.000000 -7.125000 0.000000 0.000000 8.649827 47.591610 -0.561014 0.000000 0.000000 0.000000 -22.740962 21.607039 44.118869 -77.645251 -59.396340 -49.323403 -16.575471 -25.482314 -8.971967 0.000000 0.000000 0.000000 7.125000 0.000000 0.000000 7.425473 20.660422 4.363373
7.342668 14.791507 0.089527 -186.779115 77.632569 -178.800666 0.000000 0.000000 0.000000 -18.935035 -21.215322 -28.526070 12.819553 18.715444 68.563645 1.757584 6.639601 -28.175166 1.843611 -8.531307 -24.340450 0.000000 0.000000 0.000000 23.774947 12.500266 -29.171916 -6.448374 -14.847006 46.751835 -1.503865 -9.554659 -28.365812 -2.685382 10.166871 -29.519168 0.949309 -2.097171 23.760366 1.796115 -1.601358 8.319046 1.797351 -0.472676 -4.060833 9.800388 4.661082 -13.267929 -13.640604 5.573651 1.173450 -5.416567 2.371105 3.200487 0.000000 0.000000 0.000000 11.691897 9.707233 -26.984188 109.352096 -58.530002 76.676033 36.644083 -17.280202 -15.298902 0.000000 0.000000 0.000000 -7.125000 0.000000 0.000000 8.866094 48.602334 -0.793413 0.000000 0.000000 0.000000 -21.669289 19.315041 43.955522 -74.477247 -59.053761 -46.601017 -17.035511 -24.892003 -9.174820 0.000000 0.000000 0.000000 7.125000 0.000000 0.000000 7.092273 20.425527 4.202991
7.469550 14.714998 0.081777 -183.912474 77.999829 -175.911481 0.000000 0.000000 0.000000 -17.870665 -21.790905 -29.513508 13.092832 18.814921 69.413211 1.806336 6.292490 -28.301625 1.952880 -8.766330 -25.067572 0.000000 0.000000 0.000000 24.582736 12.078125 -29.603497 -6.800346 -15.159807 48.112310 -1.639835 -8.709250 -28.696015 -2.785845 10.339686 -30.084183 1.506223 -2.127254 23.802425 2.156118 -1.479549 8.396190 1.836451 -0.406382 -4.005529 10.336941 4.839322 -13.130691 -14.563227 5.765418 0.618439 -5.786715 2.459661 3.090795 0.000000 0.000000 0.000000 10.035741 9.194352 -26.530697 107.095206 -58.861402 74.747796 36.624568 -18.942558 -15.886813 0.000000 0.000000 0.000000 -7.125000 0.000000 0.000000 8.852004 49.300431 -0.945305 0.000000 0.000000 0.000000 -20.930331 16.664473 43.797572 -70.896236 -58.562508 -43.536620 -17.758336 -23.509759 -9.204691 0.000000 0.000000 0.000000 7.125000 0.000000 0.000000 6.574178 20.352822 3.902589
7.597185 14.641616 0.069915 -180.221491 78.378211 -172.212436 0.000000 0.000000 0.000000 -16.665699 -22.245298 -30.688001 13.392642 18.918047 70.339476 1.827629 6.143152 -28.358742 2.055835 -8.979862 -25.733405 0.000000 0.000000 0.000000 25.494508 11.719128 -29.984332 -7.153708 -15.456562 49.447411 -1.732994 -7.969332 -28.834006 -2.877155 10.492748 -30.588371 2.226846 -2.142622 23.817663 2.566984 -1.299751 8.449814 1.822140 -0.309907 -3.964418 10.751552 4.998330 -13.054569 -15.461056 5.948496 0.135261 -6.130506 2.544105 3.012038 0.000000 0.000000 0.000000 8.414806 8.847613 -26.082593 104.916753 -59.132555 72.879864 36.528354 -20.615688 -16.245960 0.000000 0.000000 0.000000 -7.125000 0.000000 0.000000 8.754669 49.709921 -1.023105 0.000000 0.000000 0.000000 -20.683835 13.988589 43.414506 -68.303044 -58.130981 -41.329181 -17.731027 -22.123287 -9.342428 0.000000 0.000000 0.000000 7.125000 0.000000 0.000000 6.592688 20.211527 3.935110
7.724018 14.567662 0.054637 -176.332753 78.773613 -168.355093 0.000000 0.000000 0.000000 -15.483644 -22.563977 -31.984802 13.706786 19.021451 71.305874 1.834586 6.065310 -28.361025 2.122034 -9.115725 -26.158008 0.000000 0.000000 0.000000 26.371852 11.448958 -30.277968 -7.503710 -15.739291 50.750407 -1.803023 -7.278579 -28.865745 -2.973667 10.651416 -31.114066 2.945986 -2.145246 23.875095 2.991568 -1.099276 8.481468 1.819897 -0.203473 -3.966334 11.078731 5.185194 -13.008457 -16.297247 6.183136 -0.258601 -6.435734 2.654025 2.969738 0.000000 0.000000 0.000000 6.804605 8.716179 -25.610281 103.072180 -59.341191 71.295576 37.012691 -21.680738 -16.883401 0.000000 0.000000 0.000000 -7.125000 0.000000 0.000000 9.274840 50.569018 -1.306741 0.000000 0.000000 0.000000 -20.982374 11.440934 43.033187 -66.842863 -57.873451 -40.088480 -17.386484 -20.833075 -9.836383 0.000000 0.000000 0.000000 7.125000 0.000000 0.000000 6.835082 19.721056 4.160774
7.849420 14.491857 0.035616 -172.414987 79.190682 -164.522573 0.000000 0.000000 0.000000 -14.380597 -22.720307 -33.402976 14.033678 19.124097 72.307190 1.829091 6.030084 -28.304242 2.135772 -9.143342 -26.244663 0.000000 0.000000 0.000000 27.164846 11.290233 -30.458604 -7.848284 -16.006370 52.013941 -1.852480 -6.626910 -28.801565 -3.080823 10.824725 -31.691128 3.610478 -2.133692 24.003667 3.420190 -0.886726 8.488090 1.852657 -0.091950 -4.027486 11.315375 5.419513 -12.987252 -17.050013 6.496994 -0.543081 -6.692245 2.803028 2.971570 0.000000 0.000000 0.000000 5.199033 8.850669 -25.100358 101.697404 -59.476456 70.112426 38.382183 -21.840943 -18.006668 0.000000 0.000000 0.000000 -7.125000 0.000000 0.000000 10.737045 52.187060 -1.919240 0.000000 0.000000 0.000000 -21.931063 9.091472 42.726586 -66.745712 -57.854711 -40.006264 -16.812029 -19.686912 -10.823821 0.000000 0.000000 0.000000 7.125000 0.000000 0.000000 7.237426 18.734957 4.566077
7.977316 14.418962 0.006409 -168.726544 79.637680 -160.974109 0.000000 0.000000 0.000000 -13.540683 -22.635951 -34.923964 14.356204 19.217252 73.288346 1.818677 5.918441 -28.171941 2.070182 -9.010224 -25.827636 0.000000 0.000000 0.000000 27.751240 11.148343 -30.441370 -8.162652 -16.235551 53.143068 -1.915792 -5.859816 -28.789692 -3.154099 10.940045 -32.078357 4.208666 -2.160520 24.233808 3.764427 -0.735560 8.406932 1.852091 -0.015622 -4.232328 11.685525 5.755054 -12.762980 -17.818992 6.940271 -0.836360 -6.968987 3.025263 2.968967 0.000000 0.000000 0.000000 3.637662 9.521057 -24.213264 101.936071 -59.454659 70.317967 39.401593 -23.411316 -18.879341 0.000000 0.000000 0.000000 -7.125000 0.000000 0.000000 11.902100 53.464027 -2.521069 0.000000 0.000000 0.000000 -24.155030 6.896786 42.806717 -68.014457 -58.088920 -41.082514 -16.312952 -18.714509 -11.737542 0.000000 0.000000 0.000000 7.125000 0.000000 0.000000 7.584691 17.829087 4.944707
8.109188 14.354261 -0.028571 -164.659740 80.094719 -157.041848 0.000000 0.000000 0.000000 -12.761509 -22.425198 -36.486221 14.654619 19.299639 74.193351 1.804961 5.726996 -27.973363 1.992486 -8.849284 -25.325747 0.000000 0.000000 0.000000 28.329779 10.982023 -30.291428 -8.433281 -16.427619 54.106784 -1.949420 -5.250144 -28.680959 -3.238645 11.070995 -32.520434 4.874951 -2.224431 24.410949 4.047800 -0.624089 8.300414 1.757234 0.039531 -4.438839 12.095635 6.111572 -12.507470 -18.527532 7.407862 -1.091127 -7.231329 3.261328 2.979362 0.000000 0.000000 0.000000 2.141802 10.684987 -22.943100 102.241168 -59.425961 70.580665 40.036244 -25.400897 -18.497354 0.000000 0.000000 0.000000 -7.125000 0.000000 0.000000 12.570686 53.139885 -2.543016 0.000000 0.000000 0.000000 -26.552524 4.477399 42.444112 -69.523184 -58.348494 -42.365527 -15.669963 -17.465038 -12.160511 0.000000 0.000000 0.000000 7.125000 0.000000 0.000000 8.031631 17.439468 5.308344
8.244916 14.297793 -0.068565 -160.154960 80.568571 -152.651015 0.000000 0.000000 0.000000 -12.031504 -22.093631 -38.107831 14.928136 19.371471 75.020122 1.788992 5.466349 -27.721782 1.912484 -8.681171 -24.803108 0.000000 0.000000 0.000000 28.904786 10.821211 -30.018851 -8.658298 -16.582515 54.900451 -1.960406 -4.772633 -28.506018 -3.311040 11.182167 -32.896836 5.596396 -2.312101 24.514131 4.273803 -0.540970 8.173377 1.575647 0.078915 -4.631019 12.500698 6.481481 -12.281926 -19.124947 7.893755 -1.253672 -7.453689 3.504402 3.022186 0.000000 0.000000 0.000000 0.736899 12.324237 -21.381109 102.595943 -59.391808 70.886083 40.221723 -27.583878 -17.177709 0.000000 0.000000 0.000000 -7.125000 0.000000 0.000000 12.691761 51.582747 -2.091961 0.000000 0.000000 0.000000 -29.191257 1.866807 41.702875 -71.107743 -58.606598 -43.715438 -14.983848 -16.185409 -12.170503 0.000000 0.000000 0.000000 7.125000 0.000000 0.000000 8.508617 17.478055 5.622743
